<svg xmlns="http://www.w3.org/2000/svg" width="288" height="208"><path d="M190 77c0 33.14-32.18 60-71.88 60-39.7 0-71.87-26.86-71.87-60s32.18-60 71.88-60C157.82 17 190 43.86 190 77z" stroke="#2196f3" stroke-width="2" fill="#2196f3"/><path d="M209 129.5h-12.07l-4.25-3.03c14.97-12.83 24-29.5 24-47.6 0-40.4-44.52-73.12-99.42-73.12S17.87 38.47 17.87 78.87c0 40.4 44.5 73.14 99.4 73.14 24.6 0 47.26-6.63 64.7-17.65l4.1 3.13v8.9l76.48 56.12 22.76-16.74zm-91.74 0c-38.06 0-68.8-22.63-68.8-50.63 0-28 30.74-50.63 68.8-50.63s68.8 22.63 68.8 50.63c0 28-30.74 50.62-68.8 50.62z" fill="#fff"/><path d="M-28-28h367v270H-28z" fill="none"/><path d="M77 94.25h80v25.5H77zM77 34.25h20v20H77zM133 34.25h20v20h-20zM104 34.25h20v20h-20z" stroke="#fff" stroke-width="2" fill="#fff"/><path d="M117 94.25l-30-40" stroke="#fff" stroke-width="2" fill="none"/><path d="M118.25 94.25H117l.8-.6zM99.27 62.88l-7.42 5.56L87 54.24z" fill="#fff"/><path d="M100.97 62.86l-9.62 7.2-5.4-15.8h2.8zm-8.62 3.96l5.22-3.9-8.63-6.08z" fill="#fff"/><path d="M117 94.25v-39" stroke="#fff" stroke-width="2" fill="none"/><path d="M121.64 69.52h-9.28L117 55.25z" fill="#fff"/><path d="M123 70.52h-12l5.27-16.27h1.46zm-9.26-2h6.52L117 58.5z" fill="#fff"/><path d="M117 94.25l26-40" stroke="#fff" stroke-width="2" fill="none"/><path d="M117 94.25h-1.2l.36-.54zM139.1 68.74l-7.76-5.06L143 54.25z" fill="#fff"/><path d="M139.72 70.33l-10.08-6.56 11.77-9.52h2.64zm-6.68-6.73l5.46 3.55 2.74-10.2z" fill="#fff"/><path d="M155 64.25h24v20h-24zM53 64.25h24v20H53z" stroke="#fff" stroke-width="2" fill="#fff"/><path d="M117 94.25l38-20" stroke="#fff" stroke-width="2" fill="none"/><path d="M117 94.25h-2.15l1.68-.88zM144.53 85l-4.3-8.2L155 74.24z" fill="#fff"/><path d="M155 75.68l-10.7 11-5.6-10.64 16.3-2.8zm-13.26 1.86l3.04 5.77 7.36-7.54z" fill="#fff"/><path d="M117 94.25l-40-20" stroke="#fff" stroke-width="2" fill="none"/><path d="M119.24 94.25H117l.45-.9zM91.83 76.48l-4.14 8.3L77 74.25z" fill="#fff"/><path d="M93.34 75.7l-5.37 10.75L77 75.65v-2.4zm-5.93 7.4l2.92-5.83L79.9 75.7z" fill="#fff"/></svg>