<svg xmlns="http://www.w3.org/2000/svg" width="297" height="216"><path d="M198 93c0 33.14-32.18 60-71.88 60-39.7 0-71.87-26.86-71.87-60s32.18-60 71.88-60C165.82 33 198 59.86 198 93z" stroke="#0c7cba" stroke-width="2" fill="#0c7cba"/><path d="M217 140.5h-12.07l-4.25-3.03c14.97-12.83 24-29.5 24-47.6 0-40.4-44.52-73.12-99.42-73.12S25.87 49.47 25.87 89.87c0 40.4 44.5 73.14 99.4 73.14 24.6 0 47.26-6.63 64.7-17.65l4.1 3.13v8.9l76.48 56.12 22.76-16.74zm-91.74 0c-38.06 0-68.8-22.63-68.8-50.63 0-28 30.74-50.63 68.8-50.63s68.8 22.63 68.8 50.63c0 28-30.74 50.62-68.8 50.62z" fill="#fff"/><path d="M-20-17h367v270H-20z" fill="none"/><path d="M87 105.25h80v25.5H87zM87 45.25h20v20H87zM143 45.25h20v20h-20zM114 45.25h20v20h-20z" stroke="#fff" stroke-width="2" fill="#fff" opacity=".36"/><path d="M127 105.25l-30-40" stroke="#fff" stroke-width="2" fill="none"/><path d="M128.25 105.25H127l.8-.6zM109.27 73.88l-7.42 5.56L97 65.24z" fill="#fff"/><path d="M110.97 73.86l-9.62 7.2-5.4-15.8h2.8zm-8.62 3.96l5.22-3.9-8.63-6.08z" fill="#fff"/><path d="M127 105.25v-39" stroke="#fff" stroke-width="2" fill="none"/><path d="M131.64 80.52h-9.28L127 66.25z" fill="#fff"/><path d="M133 81.52h-12l5.27-16.27h1.46zm-9.26-2h6.52L127 69.5z" fill="#fff"/><path d="M127 105.25l26-40" stroke="#fff" stroke-width="2" fill="none"/><path d="M127 105.25h-1.2l.36-.54zM149.1 79.74l-7.76-5.06L153 65.25z" fill="#fff"/><path d="M149.72 81.33l-10.08-6.56 11.77-9.52h2.64zm-6.68-6.73l5.46 3.55 2.74-10.2z" fill="#fff"/><path d="M165 75.25h24v20h-24zM63 75.25h24v20H63z" stroke="#fff" stroke-width="2" fill="#fff" opacity=".36"/><path d="M127 105.25l38-20" stroke="#fff" stroke-width="2" fill="none"/><path d="M127 105.25h-2.15l1.68-.88zM154.53 96l-4.3-8.2L165 85.24z" fill="#fff"/><path d="M165 86.68l-10.7 11-5.6-10.64 16.3-2.8zm-13.26 1.86l3.04 5.77 7.36-7.54z" fill="#fff"/><path d="M127 105.25l-40-20" stroke="#fff" stroke-width="2" fill="none"/><path d="M129.24 105.25H127l.45-.9zM101.83 87.48l-4.14 8.3L87 85.25z" fill="#fff"/><path d="M103.34 86.7l-5.37 10.75L87 86.65v-2.4zm-5.93 7.4l2.92-5.83L89.9 86.7z" fill="#fff"/></svg>